<svg id="Layer_1" data-name="Layer 1" xmlns="http://www.w3.org/2000/svg" viewBox="0 0 596.17 122.35"><defs><style>.cls-1,.cls-2{fill:#50408f;}.cls-2{opacity:0.68;}.cls-3{fill:#fff;}</style></defs><title>narro-logo-for-illustrator-less-beckman</title><path class="cls-1" d="M475.89,0.08L388.74,0c-4.64,0-5.82,2-5.82,5.32s0.08,117,.08,117h40.17V40.25l30.42-.08A84,84,0,0,1,475.89.08Z" transform="translate(0 0)"/><path class="cls-1" d="M266.17,122.35l-82.94,0c-23.31,0-31.69-31.86-31.69-59.83S159.88,0,181.9,0h79c5.3,0,5.2,2.54,5.2,7.07S266.17,122.35,266.17,122.35ZM225.42,40.5h-17c-10.5,0-15.93,4.17-15.93,21.34S198.17,82,208.79,82h16.63V40.5Z" transform="translate(0 0)"/><path class="cls-2" d="M40,60.12C40,40.45,39.9.34,40.17,0,41.44,1.2,90.55,63.05,91,63.16c0,0.38-1.28,58.77-1.31,59.17C84.17,114.75,40,60.59,40,60.12Z" transform="translate(0 0)"/><rect class="cls-1" x="89.67" width="40.17" height="122.33"/><rect class="cls-1" width="40.17" height="122.33"/><path class="cls-1" d="M362.67,0.08L294.07,0c-4.64,0-5.15,2.29-5.15,5.66S289,122.33,289,122.33h40.17V40.25l33.5-.08V0.08Z" transform="translate(0 0)"/><circle class="cls-1" cx="535.17" cy="61.2" r="61"/><polygon class="cls-3" points="568.73 59.74 543.61 74.24 518.49 88.74 518.49 59.74 518.49 30.73 543.61 45.23 568.73 59.74"/></svg>